# xmcd
#
# Track frame offsets:
#	150
#	11619
#	22967
#	35088
#	42001
#	53779
#	64148
#	76801
#	86190
#	96257
#	105128
#	115105
#	128108
#	140602
#	152384
#
# Disc length: 2159 seconds
#
# Revision: 1
# Processed by: cddbd v1.5.2PL0 Copyright (c) Steve Scherf et al.
# Submitted via: audiograbber 1.83.01
#
DISCID=b3086d0f
DTITLE=The Parting Gifts - Strychnine Dandelion
DYEAR=2010
DGENRE=rock
TTITLE0=Keep Walkin'
TTITLE1=Bound To Let Me Down
TTITLE2=Strange Disposition
TTITLE3=My Mind's Made Up
TTITLE4=Shine
TTITLE5=Born To Be Blue
TTITLE6=Staring
TTITLE7=Don't Stop
TTITLE8=My Baby Tonight
TTITLE9=Sleepy City
TTITLE10=Don't Hurt Me Now
TTITLE11=Hanna
TTITLE12=I Don't Wanna Be Like This
TTITLE13=Strychnine Dandelion
TTITLE14=This House Ain't Home
EXTD=
EXTT0=
EXTT1=
EXTT2=
EXTT3=
EXTT4=
EXTT5=
EXTT6=
EXTT7=
EXTT8=
EXTT9=
EXTT10=
EXTT11=
EXTT12=
EXTT13=
EXTT14=
PLAYORDER=
